<svg width="25" height="20" viewBox="0 0 25 20" fill="none" xmlns="http://www.w3.org/2000/svg">
<path d="M24.5356 11.3516C24.0234 10.8872 23.2248 10.9175 22.6866 11.3516L18.6762 14.559C18.1858 14.954 17.5738 15.1667 16.9401 15.1667H11.8056C11.4236 15.1667 11.1111 14.8542 11.1111 14.4722C11.1111 14.0903 11.4236 13.7778 11.8056 13.7778H15.204C15.8941 13.7778 16.5365 13.3047 16.6493 12.6233C16.7925 11.7552 16.1241 11 15.2778 11H8.33333C7.16146 11 6.02865 11.4036 5.11719 12.1415L3.09896 13.7778H0.694444C0.3125 13.7778 0 14.0903 0 14.4722V18.6389C0 19.0208 0.3125 19.3333 0.694444 19.3333H16.1806C16.8099 19.3333 17.4219 19.1207 17.9167 18.7257L24.4792 13.474C25.1389 12.9488 25.191 11.9418 24.5356 11.3516Z" fill="white"/>
<path d="M22.885 5.58145L22.0776 5.13508C22.1591 4.71411 22.1591 4.28226 22.0776 3.86129L22.885 3.41492C22.9779 3.36412 23.0196 3.25888 22.9893 3.16089C22.7789 2.51493 22.4207 1.93065 21.9525 1.44437C21.8805 1.36997 21.7629 1.35183 21.672 1.40263L20.8645 1.849C20.5252 1.56957 20.1347 1.35364 19.7121 1.21211V0.321185C19.7121 0.219573 19.6381 0.130662 19.5339 0.108888C18.8383 -0.0399022 18.1256 -0.0326442 17.4641 0.108888C17.3598 0.130662 17.2859 0.219573 17.2859 0.321185V1.21392C16.8651 1.35727 16.4746 1.5732 16.1334 1.85082L15.3279 1.40445C15.235 1.35364 15.1194 1.36997 15.0474 1.44618C14.5792 1.93065 14.2209 2.51493 14.0105 3.16271C13.9783 3.26069 14.0219 3.36593 14.1148 3.41674L14.9223 3.86311C14.8407 4.28407 14.8407 4.71593 14.9223 5.13689L14.1148 5.58326C14.0219 5.63407 13.9802 5.73931 14.0105 5.83729C14.2209 6.48326 14.5792 7.06753 15.0474 7.55382C15.1194 7.62821 15.2369 7.64636 15.3279 7.59555L16.1353 7.14918C16.4746 7.42862 16.8651 7.64454 17.2878 7.78608V8.67881C17.2878 8.78043 17.3617 8.86934 17.4659 8.89111C18.1616 9.0399 18.8743 9.03264 19.5358 8.89111C19.64 8.86934 19.714 8.78043 19.714 8.67881V7.78608C20.1347 7.64273 20.5252 7.4268 20.8664 7.14918L21.6739 7.59555C21.7667 7.64636 21.8824 7.63003 21.9544 7.55382C22.4226 7.06934 22.7808 6.48507 22.9912 5.83729C23.0196 5.73749 22.9779 5.63225 22.885 5.58145ZM18.499 5.94979C17.6631 5.94979 16.9826 5.29838 16.9826 4.49819C16.9826 3.69799 17.6631 3.04658 18.499 3.04658C19.3349 3.04658 20.0153 3.69799 20.0153 4.49819C20.0153 5.29838 19.3349 5.94979 18.499 5.94979Z" fill="white"/>
</svg>
